<svg width="32" height="30" viewBox="0 0 32 30" fill="none" xmlns="http://www.w3.org/2000/svg">
<g clip-path="url(#clip0)">
<path d="M25.2958 1.49286V6.04965L0.356445 24.8462V21.2387L25.2958 1.49286Z" stroke="black" stroke-width="0.5"/>
<path d="M14.4111 14.0239L18.7215 19.9098L6.16582 29.403L0.356445 24.8244L14.4111 14.0239Z" stroke="black" stroke-width="0.5"/>
<path d="M31.0899 6.04962V10.6064L6.15039 29.4029V25.7955L31.0899 6.04962Z" fill="#EFEFEF" stroke="black" stroke-width="0.5"/>
<path d="M25.2802 1.52493L31.0897 6.04963L8.78927 23.707L3.72949 18.5807L25.2802 1.52493Z" fill="#EFEFEF"/>
<path d="M8.97665 24.4664L8.78931 23.707L31.0898 6.04962V6.99895L8.97665 24.4664Z" fill="#EFEFEF"/>
<path d="M25.2802 1.52492L25.367 1.41051L25.2795 1.34235L25.1925 1.41119L25.2802 1.52492ZM31.0897 6.04962H31.2322V5.97853L31.1763 5.93521L31.0897 6.04962ZM3.72947 18.5807L3.64178 18.4669L3.51489 18.5673L3.62876 18.6827L3.72947 18.5807ZM8.97659 24.4664L8.83842 24.5015L8.8915 24.7167L9.06419 24.5803L8.97659 24.4664ZM31.0897 6.99895L31.1772 7.11276L31.2322 7.06943V6.99895H31.0897ZM25.1934 1.63934L31.0028 6.16404L31.1763 5.93521L25.367 1.41051L25.1934 1.63934ZM31.002 5.9359L8.70153 23.5933L8.87694 23.8207L31.1775 6.16332L31.002 5.9359ZM8.88996 23.6049L3.83021 18.4786L3.62876 18.6827L8.68851 23.809L8.88996 23.6049ZM3.81716 18.6944L25.3679 1.63866L25.1925 1.41119L3.64178 18.4669L3.81716 18.6944ZM9.11479 24.4315L8.92742 23.672L8.65105 23.742L8.83842 24.5015L9.11479 24.4315ZM30.9473 6.04962V6.99895H31.2322V6.04962H30.9473ZM31.002 6.88514L8.88902 24.3526L9.06419 24.5803L31.1772 7.11276L31.002 6.88514Z" fill="black"/>
</g>
<defs>
<clipPath id="clip0">
<rect width="31.3377" height="28.8636" fill="white" transform="translate(0.0715332 0.915588)"/>
</clipPath>
</defs>
</svg>
