<svg width="34" height="29" viewBox="0 0 34 29" fill="none" xmlns="http://www.w3.org/2000/svg">
<g clip-path="url(#clip0)">
<path d="M29.2069 7.20122L32.1123 4.79051" stroke="black" stroke-width="0.5"/>
<path d="M29.4458 5.85478L22.7731 11.0684L23.847 12.4669L30.5198 7.25322L29.4458 5.85478Z" fill="#EFEFEF" stroke="black" stroke-width="0.5"/>
<path d="M30.7501 3.02848L33.6555 0.617798" stroke="black" stroke-width="0.5"/>
<path d="M31.1711 1.55872L23.717 7.49227L24.7805 8.87719L32.2346 2.94359L31.1711 1.55872Z" fill="#EFEFEF" stroke="black" stroke-width="0.5"/>
<path d="M27.4066 2.69367L30.312 0.282974" stroke="black" stroke-width="0.5"/>
<path d="M27.5313 1.51882L20.7198 6.96508L21.7744 8.33834L28.5859 2.89208L27.5313 1.51882Z" fill="#EFEFEF" stroke="black" stroke-width="0.5"/>
<path d="M23.4182 4.77396C23.2287 4.52723 22.8776 4.48278 22.6339 4.67467L0.891603 21.7975C0.648214 21.9894 0.604063 22.345 0.7938 22.5917L4.90681 27.9479C5.09655 28.1946 5.44752 28.2391 5.69119 28.0472L27.4334 10.9243C27.677 10.7324 27.7209 10.3769 27.5314 10.1301L23.4182 4.77396Z" fill="#EFEFEF" stroke="black" stroke-width="0.5"/>
</g>
<defs>
<clipPath id="clip0">
<rect width="33.8117" height="28.8636" fill="white" transform="matrix(-1 0 0 1 33.9351 0)"/>
</clipPath>
</defs>
</svg>
