<svg width="25" height="29" viewBox="0 0 25 29" fill="none" xmlns="http://www.w3.org/2000/svg">
<g clip-path="url(#clip0)">
<path d="M23.994 13.5317V1.10317C23.994 0.707333 23.6702 0.386475 23.2709 0.386475H21.9067H2.74919H1.38499C0.985566 0.386475 0.661865 0.707333 0.661865 1.10317V27.1418C0.661865 27.5376 0.985493 27.8584 1.38499 27.8584H2.74923H21.9068H23.271C23.6704 27.8584 23.9941 27.5376 23.9941 27.1418L23.994 13.5317Z" stroke="black" stroke-width="0.5"/>
<path d="M21.6221 24.8269C21.6221 25.2227 21.2984 25.5436 20.899 25.5436H3.75683C3.35744 25.5436 3.03369 25.2228 3.03369 24.8269V3.41793C3.03369 3.02214 3.35738 2.70126 3.75683 2.70126H20.899C21.2984 2.70126 21.6221 3.02212 21.6221 3.41793V24.8269Z" stroke="black" stroke-width="0.5"/>
<path d="M21.6221 9.31519C21.2061 9.31519 20.8689 8.98089 20.8689 8.56869V6.23967C20.8689 5.82738 21.2061 5.49316 21.6221 5.49316C22.0381 5.49316 22.3753 5.82738 22.3753 6.23967V8.56869C22.3753 8.98089 22.0381 9.31519 21.6221 9.31519Z" fill="#F5F5F5" stroke="black" stroke-width="0.5"/>
<path d="M21.6221 22.7518C21.2061 22.7518 20.8689 22.4175 20.8689 22.0053V19.6763C20.8689 19.264 21.2061 18.9298 21.6221 18.9298C22.0381 18.9298 22.3753 19.264 22.3753 19.6763V22.0053C22.3753 22.4175 22.0381 22.7518 21.6221 22.7518Z" fill="#F5F5F5" stroke="black" stroke-width="0.5"/>
<path d="M5.60318 21.7661C6.119 21.7661 6.53714 21.3517 6.53714 20.8405C6.53714 20.3292 6.119 19.9148 5.60318 19.9148C5.08733 19.9148 4.66919 20.3292 4.66919 20.8405C4.66919 21.3517 5.08733 21.7661 5.60318 21.7661Z" stroke="black" stroke-width="0.5"/>
<path d="M17.6507 14.5984L12.7441 6.26132C12.6577 6.11453 12.4993 6.0242 12.3277 6.0242C12.1562 6.0242 11.9977 6.11453 11.9114 6.26132L7.00486 14.5984C6.91792 14.7462 6.91728 14.9287 7.00323 15.0771C7.08924 15.2254 7.24863 15.3169 7.42129 15.3169H17.2344C17.407 15.3169 17.5665 15.2255 17.6524 15.0771C17.7383 14.9287 17.7377 14.7461 17.6507 14.5984Z" stroke="black" stroke-width="0.5"/>
<path d="M16.5104 19.3945H8.14576C7.8962 19.3945 7.69385 19.194 7.69385 18.9465C7.69385 18.6991 7.8962 18.4987 8.14576 18.4987H16.5104C16.76 18.4987 16.9624 18.6991 16.9624 18.9465C16.9624 19.194 16.76 19.3945 16.5104 19.3945Z" stroke="black" stroke-width="0.2"/>
<path d="M16.5104 21.2887H8.14576C7.8962 21.2887 7.69385 21.0882 7.69385 20.8408C7.69385 20.5934 7.8962 20.3929 8.14576 20.3929H16.5104C16.76 20.3929 16.9624 20.5933 16.9624 20.8408C16.9624 21.0882 16.76 21.2887 16.5104 21.2887Z" stroke="black" stroke-width="0.2"/>
<path d="M16.5104 23.1829H8.14576C7.8962 23.1829 7.69385 22.9824 7.69385 22.735C7.69385 22.4875 7.8962 22.287 8.14576 22.287H16.5104C16.76 22.287 16.9624 22.4875 16.9624 22.735C16.9624 22.9823 16.76 23.1829 16.5104 23.1829Z" stroke="black" stroke-width="0.2"/>
<path d="M12.2038 13.8717C12.1436 13.8717 12.0823 13.8597 12.0235 13.8342C11.7947 13.7354 11.6902 13.4714 11.7898 13.2447L12.1708 12.3785H11.4748C11.3256 12.3785 11.1859 12.3055 11.1017 12.1832C11.0175 12.061 10.9996 11.9055 11.0538 11.7676L11.7831 9.91631C11.8738 9.6859 12.1359 9.57192 12.3684 9.66194C12.6009 9.75189 12.7159 10.0116 12.6251 10.2421L12.1365 11.4827H12.8608C13.0132 11.4827 13.1554 11.5587 13.2388 11.6851C13.3224 11.8115 13.3359 11.9711 13.2751 12.1095L12.6183 13.6025C12.5442 13.7711 12.3782 13.8717 12.2038 13.8717Z" stroke="black" stroke-width="0.5"/>
</g>
<defs>
<clipPath id="clip0">
<rect width="23.9156" height="28.039" fill="white" transform="translate(0.370117 0.0974121)"/>
</clipPath>
</defs>
</svg>
