<svg width="47" height="28" viewBox="0 0 47 28" fill="none" xmlns="http://www.w3.org/2000/svg">
<path d="M19.7035 8.68199V8.18199H19.5715L19.4567 8.24718L19.7035 8.68199ZM8.67017 25.9476L8.17105 25.9179L8.13953 26.4476H8.67017V25.9476ZM26.7686 8.68199L27.0155 8.24718L26.9007 8.18199H26.7686V8.68199ZM37.802 25.9476V26.4476H38.3326L38.3011 25.9179L37.802 25.9476ZM19.4567 8.24718C10.9777 13.0612 8.40324 22.0158 8.17105 25.9179L9.16928 25.9773C9.38876 22.2888 11.86 13.7102 19.9504 9.1168L19.4567 8.24718ZM8.67017 26.4476H23.1878V25.4476H8.67017V26.4476ZM23.1878 8.18199H19.7035V9.18199H23.1878V8.18199ZM26.5218 9.1168C34.6122 13.7102 37.0835 22.2888 37.3029 25.9773L38.3011 25.9179C38.069 22.0158 35.4945 13.0612 27.0155 8.24718L26.5218 9.1168ZM37.802 25.4476H23.1878V26.4476H37.802V25.4476ZM23.1878 9.18199H26.7686V8.18199H23.1878V9.18199Z" />
<path d="M6.55664 25.9773H39.6251" stroke-linecap="round" stroke-linejoin="round"/>
<path d="M19.6066 8.77532L19.1072 8.79969L19.1304 9.27532H19.6066V8.77532ZM26.7866 8.77532V9.27532H27.2628L27.286 8.7997L26.7866 8.77532ZM21.9294 0.342499C21.5888 0.342499 21.3202 0.533945 21.1331 0.725664C20.9394 0.924059 20.7679 1.188 20.6158 1.47754C20.3096 2.06004 20.0321 2.84257 19.8018 3.6855C19.342 5.36799 19.0392 7.40686 19.1072 8.79969L20.106 8.75095C20.0449 7.49952 20.3229 5.57197 20.7664 3.94912C20.9877 3.13938 21.2425 2.4345 21.501 1.94276C21.6311 1.69519 21.75 1.5253 21.8487 1.42415C21.9539 1.31632 21.9797 1.3425 21.9294 1.3425V0.342499ZM19.6066 9.27532H23.1877V8.27532H19.6066V9.27532ZM23.1877 0.342499H21.9294V1.3425H23.1877V0.342499ZM24.4638 1.3425C24.4135 1.3425 24.4393 1.31632 24.5445 1.42415C24.6433 1.5253 24.7621 1.69519 24.8923 1.94276C25.1507 2.4345 25.4055 3.13938 25.6268 3.94912C26.0703 5.57197 26.3483 7.49951 26.2872 8.75095L27.286 8.7997C27.354 7.40686 27.0512 5.368 26.5914 3.6855C26.3611 2.84257 26.0836 2.06004 25.7775 1.47754C25.6253 1.188 25.4538 0.924059 25.2602 0.725663C25.073 0.533944 24.8044 0.342499 24.4638 0.342499V1.3425ZM26.7866 8.27532H23.1877V9.27532H26.7866V8.27532ZM23.1877 1.3425H24.4638V0.342499H23.1877V1.3425Z"/>
<style>
    svg { fill: #000; }
	svg:hover{ fill:#F4B301;cursor:pointer }
</style>
</svg>
