<svg width="28" height="26" viewBox="0 0 28 26" fill="none" xmlns="http://www.w3.org/2000/svg">
<path d="M0.213135 0.927887H7.1873V25.3838H0.213135V0.927887Z" stroke="black" stroke-width="0.5"/>
<path d="M7.32867 7.47224H0.0715332V7.75662H7.32867V7.47224Z" fill="black"/>
<path d="M3.7002 1.07007V7.75662" stroke="black" stroke-width="0.5"/>
<path d="M3.70013 5.38272C4.38333 5.38272 4.93717 4.8214 4.93717 4.12898C4.93717 3.43656 4.38333 2.87524 3.70013 2.87524C3.01697 2.87524 2.46313 3.43656 2.46313 4.12898C2.46313 4.8214 3.01697 5.38272 3.70013 5.38272Z" fill="#EFEFEF" stroke="black" stroke-width="0.5"/>
<path d="M3.7002 17.6693V25.526" stroke="black" stroke-width="0.5"/>
<path d="M3.70013 23.4364C4.38333 23.4364 4.93717 22.8751 4.93717 22.1826C4.93717 21.4902 4.38333 20.9289 3.70013 20.9289C3.01697 20.9289 2.46313 21.4902 2.46313 22.1826C2.46313 22.8751 3.01697 23.4364 3.70013 23.4364Z" fill="#EFEFEF" stroke="black" stroke-width="0.5"/>
<path d="M2.02734 12.6293H5.37293V16.8584H2.02734V12.6293Z" stroke="black" stroke-width="0.5"/>
<path d="M5.5143 12.4872H1.88574V12.7715H5.5143V12.4872Z" fill="black"/>
<path d="M1.39355 17.7058L1.64823 16.8527H5.85213L6.10681 17.7058H1.39355Z" stroke="black" stroke-width="0.5"/>
<path d="M1.88574 9.22748H3.70002" stroke="black" stroke-width="0.5"/>
<path d="M3.70004 14.2424C3.83669 14.2424 3.94745 14.1301 3.94745 13.9917C3.94745 13.8532 3.83669 13.7409 3.70004 13.7409C3.56342 13.7409 3.45264 13.8532 3.45264 13.9917C3.45264 14.1301 3.56342 14.2424 3.70004 14.2424Z" stroke="black" stroke-width="0.5"/>
<path d="M27.1094 7.72H11.1094V8H27.1094V7.72Z" fill="black"/>
<path d="M14.6287 1.07007V7.75662" stroke="black" stroke-width="0.5"/>
<path d="M14.6286 5.38272C15.3118 5.38272 15.8656 4.8214 15.8656 4.12898C15.8656 3.43656 15.3118 2.87524 14.6286 2.87524C13.9454 2.87524 13.3916 3.43656 13.3916 4.12898C13.3916 4.8214 13.9454 5.38272 14.6286 5.38272Z" fill="#EFEFEF" stroke="black" stroke-width="0.5"/>
<path d="M14.6287 17.6693V25.526" stroke="black" stroke-width="0.5"/>
<path d="M14.6286 23.4364C15.3118 23.4364 15.8656 22.8751 15.8656 22.1826C15.8656 21.4902 15.3118 20.9289 14.6286 20.9289C13.9454 20.9289 13.3916 21.4902 13.3916 22.1826C13.3916 22.8751 13.9454 23.4364 14.6286 23.4364Z" fill="#EFEFEF" stroke="black" stroke-width="0.5"/>
<path d="M12.9558 12.6293H16.3014V16.8584H12.9558V12.6293Z" stroke="black" stroke-width="0.5"/>
<path d="M16.4428 12.4872H12.8142V12.7715H16.4428V12.4872Z" fill="black"/>
<path d="M12.322 17.7058L12.5767 16.8527H16.7806L17.0353 17.7058H12.322Z" stroke="black" stroke-width="0.5"/>
<path d="M12.8142 9.22748H14.6285" stroke="black" stroke-width="0.5"/>
<path d="M14.6285 14.2424C14.7652 14.2424 14.8759 14.1301 14.8759 13.9917C14.8759 13.8532 14.7652 13.7409 14.6285 13.7409C14.4919 13.7409 14.3811 13.8532 14.3811 13.9917C14.3811 14.1301 14.4919 14.2424 14.6285 14.2424Z" stroke="black" stroke-width="0.5"/>
<path d="M23.6287 1.07007V7.75662" stroke="black" stroke-width="0.5"/>
<path d="M23.6286 5.38272C24.3118 5.38272 24.8656 4.8214 24.8656 4.12898C24.8656 3.43656 24.3118 2.87524 23.6286 2.87524C22.9454 2.87524 22.3916 3.43656 22.3916 4.12898C22.3916 4.8214 22.9454 5.38272 23.6286 5.38272Z" fill="#EFEFEF" stroke="black" stroke-width="0.5"/>
<path d="M23.6287 17.6693V25.526" stroke="black" stroke-width="0.5"/>
<path d="M23.6286 23.4364C24.3118 23.4364 24.8656 22.8751 24.8656 22.1826C24.8656 21.4902 24.3118 20.9289 23.6286 20.9289C22.9454 20.9289 22.3916 21.4902 22.3916 22.1826C22.3916 22.8751 22.9454 23.4364 23.6286 23.4364Z" fill="#EFEFEF" stroke="black" stroke-width="0.5"/>
<path d="M21.9558 12.6293H25.3014V16.8584H21.9558V12.6293Z" stroke="black" stroke-width="0.5"/>
<path d="M25.4428 12.4872H21.8142V12.7715H25.4428V12.4872Z" fill="black"/>
<path d="M21.322 17.7058L21.5767 16.8527H25.7806L26.0353 17.7058H21.322Z" stroke="black" stroke-width="0.5"/>
<path d="M21.8142 9.22748H23.6285" stroke="black" stroke-width="0.5"/>
<path d="M23.6285 14.2424C23.7652 14.2424 23.8759 14.1301 23.8759 13.9917C23.8759 13.8532 23.7652 13.7409 23.6285 13.7409C23.4919 13.7409 23.3811 13.8532 23.3811 13.9917C23.3811 14.1301 23.4919 14.2424 23.6285 14.2424Z" stroke="black" stroke-width="0.5"/>
<path d="M11.0837 0.927887H27.2943V25.3838H11.0837V0.927887Z" stroke="black" stroke-width="0.5"/>
<mask id="mask0" mask-type="alpha" maskUnits="userSpaceOnUse" x="13" y="12" width="5" height="1">
<path d="M17.5661 12.4872H13.9375V12.7715H17.5661V12.4872Z" fill="white"/>
</mask>
<g mask="url(#mask0)">
</g>
</svg>
