<svg width="28" height="28" viewBox="0 0 28 28" fill="none" xmlns="http://www.w3.org/2000/svg">
<g clip-path="url(#clip0)">
<path d="M23.0914 14.121C23.0914 21.2325 18.0692 26.9975 11.8739 26.9975C5.6787 26.9975 0.656494 21.2325 0.656494 14.121C0.656494 7.00954 5.6787 1.24454 11.8739 1.24454C18.0692 1.24454 23.0914 7.00954 23.0914 14.121Z" fill="#EFEFEF" stroke="black" stroke-width="0.5"/>
<path d="M27.2979 14.121C27.2979 21.2325 22.2757 26.9975 16.0805 26.9975C9.88527 26.9975 4.86304 21.2325 4.86304 14.121C4.86304 7.00954 9.88527 1.24454 16.0805 1.24454C22.2757 1.24454 27.2979 7.00954 27.2979 14.121Z" fill="#EFEFEF" stroke="black" stroke-width="0.5"/>
<path d="M25.0947 14.1211C25.0947 19.8887 21.059 24.5642 16.0807 24.5642C11.1024 24.5642 7.06665 19.8887 7.06665 14.1211C7.06665 8.35348 11.1024 3.67792 16.0807 3.67792C21.059 3.67792 25.0947 8.35348 25.0947 14.1211Z" stroke="black" stroke-width="0.5"/>
<path d="M23.492 14.121C23.492 18.8807 20.1737 22.7392 16.0805 22.7392C11.9872 22.7392 8.66895 18.8807 8.66895 14.121C8.66895 9.36138 11.9872 5.50293 16.0805 5.50293C20.1737 5.50293 23.492 9.36138 23.492 14.121Z" stroke="black" stroke-width="0.5"/>
<path d="M21.0884 14.1211C21.0884 17.3128 18.8463 19.9003 16.0806 19.9003C13.3148 19.9003 11.0728 17.3128 11.0728 14.1211C11.0728 10.9293 13.3148 8.34186 16.0806 8.34186C18.8463 8.34186 21.0884 10.9293 21.0884 14.1211Z" stroke="black" stroke-width="0.5"/>
<path d="M21.0884 14.1211C21.0884 17.3128 18.8463 19.9003 16.0806 19.9003C13.3148 19.9003 11.0728 17.3128 11.0728 14.1211C11.0728 10.9293 13.3148 8.34186 16.0806 8.34186C18.8463 8.34186 21.0884 10.9293 21.0884 14.1211Z" stroke="black" stroke-width="0.5"/>
</g>
<defs>
<clipPath id="clip0">
<rect width="27.2143" height="26.3896" fill="white" transform="translate(0.370117 0.954559)"/>
</clipPath>
</defs>
</svg>
