<svg width="23" height="26" viewBox="0 0 23 26" fill="none" xmlns="http://www.w3.org/2000/svg">
<g clip-path="url(#clip0)">
<path d="M16.1178 2.4016V1.48169C16.1178 1.05886 15.7282 0.716003 15.2474 0.716003H8.1765C7.69586 0.716003 7.30615 1.05886 7.30615 1.48169V2.4016H16.1178Z" stroke="black" stroke-width="0.5"/>
<path d="M2.60669 24.3144V25.0227C2.60669 25.4073 2.98251 25.7191 3.44598 25.7191H6.17324C6.63671 25.7191 7.01249 25.4073 7.01249 25.0227V24.3144H2.60669Z" stroke="black" stroke-width="0.5"/>
<path d="M16.1177 24.3144V25.0227C16.1177 25.4073 16.5185 25.7191 17.0129 25.7191H19.922C20.4164 25.7191 20.8172 25.4073 20.8172 25.0227V24.3144H16.1177Z" stroke="black" stroke-width="0.5"/>
<path d="M8.19233 24.4528L21.21 24.4527C21.6823 24.4527 22.0651 24.0845 22.0651 23.6304V3.24091C22.0651 2.78682 21.6823 2.41864 21.21 2.41864H1.993C1.5208 2.41864 1.13794 2.78682 1.13794 3.24091V23.6305C1.13794 24.0846 1.5208 24.4528 1.993 24.4528H8.19233Z" fill="#EFEFEF" stroke="black" stroke-width="0.5"/>
<path d="M15.4603 8.62497H22.065V3.24091C22.065 2.78682 21.6822 2.41864 21.21 2.41864H1.993C1.5208 2.41864 1.13794 2.78682 1.13794 3.24091V8.62497H15.4603Z" stroke="black" stroke-width="0.5"/>
<path d="M16.9564 6.84037C17.7041 6.84037 18.3103 6.25746 18.3103 5.53841C18.3103 4.81942 17.7041 4.23651 16.9564 4.23651C16.2087 4.23651 15.6025 4.81942 15.6025 5.53841C15.6025 6.25746 16.2087 6.84037 16.9564 6.84037Z" stroke="black" stroke-width="0.5"/>
<path d="M11.564 6.84037C12.3117 6.84037 12.9179 6.25746 12.9179 5.53841C12.9179 4.81942 12.3117 4.23651 11.564 4.23651C10.8163 4.23651 10.2102 4.81942 10.2102 5.53841C10.2102 6.25746 10.8163 6.84037 11.564 6.84037Z" stroke="black" stroke-width="0.5"/>
<path d="M6.17269 6.84037C6.92041 6.84037 7.52656 6.25746 7.52656 5.53841C7.52656 4.81942 6.92041 4.23651 6.17269 4.23651C5.425 4.23651 4.81885 4.81942 4.81885 5.53841C4.81885 6.25746 5.425 6.84037 6.17269 6.84037Z" stroke="black" stroke-width="0.5"/>
<path d="M17.7401 22.3619C18.4878 22.3619 19.0939 21.779 19.0939 21.06C19.0939 20.341 18.4878 19.7581 17.7401 19.7581C16.9924 19.7581 16.3862 20.341 16.3862 21.06C16.3862 21.779 16.9924 22.3619 17.7401 22.3619Z" stroke="black" stroke-width="0.5"/>
<path d="M13.2406 12.6571H4.98679C4.6916 12.6571 4.45239 12.4271 4.45239 12.1432C4.45239 11.8593 4.6916 11.6293 4.98679 11.6293H13.2406C13.5358 11.6293 13.7751 11.8593 13.7751 12.1432C13.7751 12.427 13.5357 12.6571 13.2406 12.6571Z" stroke="black" stroke-width="0.5"/>
<path d="M13.2406 14.8304H4.98679C4.6916 14.8304 4.45239 14.6004 4.45239 14.3165C4.45239 14.0326 4.6916 13.8026 4.98679 13.8026H13.2406C13.5358 13.8026 13.7751 14.0326 13.7751 14.3165C13.7751 14.6003 13.5357 14.8304 13.2406 14.8304Z" stroke="black" stroke-width="0.5"/>
<path d="M13.2406 17.0036H4.98679C4.6916 17.0036 4.45239 16.7736 4.45239 16.4897C4.45239 16.2058 4.6916 15.9758 4.98679 15.9758H13.2406C13.5358 15.9758 13.7751 16.2058 13.7751 16.4897C13.7751 16.7736 13.5357 17.0036 13.2406 17.0036Z" stroke="black" stroke-width="0.5"/>
<path d="M13.4249 19.1616H5.17114C4.87592 19.1616 4.63672 18.9316 4.63672 18.6477C4.63672 18.3639 4.87592 18.1339 5.17114 18.1339H13.425C13.7202 18.1339 13.9594 18.3639 13.9594 18.6477C13.9594 18.9316 13.7201 19.1616 13.4249 19.1616Z" stroke="black" stroke-width="0.5"/>
<path d="M13.2406 21.3502H4.98679C4.6916 21.3502 4.45239 21.1202 4.45239 20.8363C4.45239 20.5524 4.6916 20.3224 4.98679 20.3224H13.2406C13.5358 20.3224 13.7751 20.5524 13.7751 20.8363C13.7751 21.1202 13.5357 21.3502 13.2406 21.3502Z" stroke="black" stroke-width="0.5"/>
<path d="M18.7022 18.0904H16.7783C16.4831 18.0904 16.2439 17.8604 16.2439 17.5764C16.2439 17.2926 16.4831 17.0626 16.7783 17.0626H18.7022C18.9973 17.0626 19.2365 17.2926 19.2365 17.5764C19.2365 17.8602 18.9973 18.0904 18.7022 18.0904Z" stroke="black" stroke-width="0.5"/>
<path d="M18.7022 15.9171H16.7783C16.4831 15.9171 16.2439 15.6871 16.2439 15.4032C16.2439 15.1193 16.4831 14.8893 16.7783 14.8893H18.7022C18.9973 14.8893 19.2365 15.1193 19.2365 15.4032C19.2365 15.687 18.9973 15.9171 18.7022 15.9171Z" stroke="black" stroke-width="0.5"/>
<path d="M18.7022 13.7437H16.7783C16.4831 13.7437 16.2439 13.5137 16.2439 13.2298C16.2439 12.9459 16.4831 12.7159 16.7783 12.7159H18.7022C18.9973 12.7159 19.2365 12.9459 19.2365 13.2298C19.2365 13.5137 18.9973 13.7437 18.7022 13.7437Z" stroke="black" stroke-width="0.5"/>
</g>
<defs>
<clipPath id="clip0">
<rect width="21.4416" height="25.5649" fill="white" transform="translate(0.844238 0.435059)"/>
</clipPath>
</defs>
</svg>
