<svg width="24" height="27" viewBox="0 0 24 27" fill="none" xmlns="http://www.w3.org/2000/svg">
<g clip-path="url(#clip0)">
<path d="M8.93076 26.2589C6.46757 26.2589 4.47925 24.2087 4.47925 21.669V17.324H5.10248V21.669C5.10248 23.8415 6.82373 25.6161 8.93076 25.6161C11.0378 25.6161 12.759 23.8415 12.759 21.669V4.56458C12.759 2.4839 14.3913 0.800995 16.4093 0.800995C18.4273 0.800995 20.0595 2.4839 20.0595 4.56458V16.1919H19.4363V4.56458C19.4363 2.85109 18.1008 1.47417 16.4389 1.47417C14.7771 1.47417 13.4416 2.85109 13.4416 4.56458V21.669C13.3822 24.2087 11.3939 26.2589 8.93076 26.2589Z" stroke="black" stroke-width="0.2"/>
<path d="M20.6829 14.9259H18.7539L19.0507 13.1206H20.3861L20.6829 14.9259Z" fill="#EFEFEF" stroke="black" stroke-width="0.5"/>
<path d="M5.63699 19.7298H3.97508L3.70801 17.4962H5.90407L5.63699 19.7298Z" fill="#EFEFEF" stroke="black" stroke-width="0.5"/>
<path d="M8.48583 17.8939H1.12604C0.769932 17.8939 0.473145 17.588 0.473145 17.2208V1.27909C0.473145 0.911931 0.769932 0.605927 1.12604 0.605927H8.48583C8.84196 0.605927 9.13872 0.911931 9.13872 1.27909V17.2208C9.13872 17.588 8.84196 17.8939 8.48583 17.8939Z" fill="#EFEFEF" stroke="black" stroke-width="0.5"/>
<path d="M4.80606 8.68388C6.44504 8.68388 7.77371 7.31395 7.77371 5.62404C7.77371 3.93415 6.44504 2.56421 4.80606 2.56421C3.16705 2.56421 1.83838 3.93415 1.83838 5.62404C1.83838 7.31395 3.16705 8.68388 4.80606 8.68388Z" stroke="black" stroke-width="0.5"/>
<path d="M4.80606 15.9357C6.44504 15.9357 7.77371 14.5657 7.77371 12.8758C7.77371 11.1859 6.44504 9.81604 4.80606 9.81604C3.16705 9.81604 1.83838 11.1859 1.83838 12.8758C1.83838 14.5657 3.16705 15.9357 4.80606 15.9357Z" stroke="black" stroke-width="0.5"/>
<path d="M5.72567 6.08303C5.97152 6.08303 6.17082 5.87753 6.17082 5.62405C6.17082 5.37056 5.97152 5.16507 5.72567 5.16507C5.47982 5.16507 5.28052 5.37056 5.28052 5.62405C5.28052 5.87753 5.47982 6.08303 5.72567 6.08303Z" stroke="black" stroke-width="0.5"/>
<path d="M3.85629 6.08303C4.10213 6.08303 4.30144 5.87753 4.30144 5.62405C4.30144 5.37056 4.10213 5.16507 3.85629 5.16507C3.61044 5.16507 3.41113 5.37056 3.41113 5.62405C3.41113 5.87753 3.61044 6.08303 3.85629 6.08303Z" stroke="black" stroke-width="0.5"/>
<path d="M5.72567 13.3349C5.97152 13.3349 6.17082 13.1294 6.17082 12.8759C6.17082 12.6224 5.97152 12.4169 5.72567 12.4169C5.47982 12.4169 5.28052 12.6224 5.28052 12.8759C5.28052 13.1294 5.47982 13.3349 5.72567 13.3349Z" stroke="black" stroke-width="0.5"/>
<path d="M3.85629 13.3349C4.10213 13.3349 4.30144 13.1294 4.30144 12.8759C4.30144 12.6224 4.10213 12.4169 3.85629 12.4169C3.61044 12.4169 3.41113 12.6224 3.41113 12.8759C3.41113 13.1294 3.61044 13.3349 3.85629 13.3349Z" stroke="black" stroke-width="0.5"/>
<path d="M17.9229 19.5157H18.7241V22.6061C18.7241 22.8202 18.546 23.0038 18.3383 23.0038C18.1306 23.0038 17.9525 22.8202 17.9525 22.6061V19.5157H17.9229Z" stroke="black" stroke-width="0.5"/>
<path d="M20.8904 19.5157H21.6916V22.6061C21.6916 22.8202 21.5136 23.0038 21.3059 23.0038C21.0981 23.0038 20.9201 22.8202 20.9201 22.6061V19.5157H20.8904Z" stroke="black" stroke-width="0.5"/>
<path d="M22.4039 18.9649V15.7215C22.4039 14.8953 21.7512 14.2527 20.9796 14.2527H18.4867C17.6855 14.2527 17.0623 14.9259 17.0623 15.7215V18.9649H22.4039Z" fill="#EFEFEF" stroke="black" stroke-width="0.5"/>
<path d="M16.7656 18.5365H22.6713C22.9384 18.5365 23.146 18.7507 23.146 19.0261V19.5769C23.146 19.8522 22.9384 20.0664 22.6713 20.0664H16.7656C16.4985 20.0664 16.2908 19.8522 16.2908 19.5769V19.0261C16.3204 18.7507 16.5282 18.5365 16.7656 18.5365Z" fill="#EFEFEF" stroke="black" stroke-width="0.5"/>
<path d="M19.7034 16.976C19.9984 16.976 20.2375 16.7294 20.2375 16.4253C20.2375 16.1211 19.9984 15.8745 19.7034 15.8745C19.4083 15.8745 19.1692 16.1211 19.1692 16.4253C19.1692 16.7294 19.4083 16.976 19.7034 16.976Z" stroke="black" stroke-width="0.5"/>
</g>
<defs>
<clipPath id="clip0">
<rect width="23.0909" height="26.3896" fill="white" transform="translate(0.194824 0.227295)"/>
</clipPath>
</defs>
</svg>
