<svg width="22" height="25" viewBox="0 0 22 25" xmlns="http://www.w3.org/2000/svg">
<path fill-rule="evenodd" clip-rule="evenodd" d="M10.6263 13.4679H10.5434C9.02688 13.442 7.80017 12.9089 6.89955 11.8892C4.9068 9.64286 5.23806 5.79193 5.27429 5.42443C5.40369 2.64493 6.72874 1.32505 7.8157 0.70911C8.89748 0.0931677 10.0258 0 10.6004 0H10.6314H10.6521H10.6884C11.7339 0.0207039 12.6708 0.269151 13.4731 0.729814C14.5497 1.34576 15.854 2.66563 15.9834 5.42443C16.0196 5.79193 16.3509 9.64286 14.3581 11.8892C13.4523 12.9089 12.2256 13.442 10.7091 13.4679H10.6573H10.6263ZM6.65926 5.52905C6.65785 5.53673 6.65628 5.54528 6.65628 5.55383C6.6511 5.58489 6.29914 9.12008 7.93992 10.9627C8.58692 11.6977 9.46166 12.06 10.6004 12.0704H10.6263H10.6521C11.796 12.06 12.6656 11.6977 13.3178 10.9627C14.9637 9.10973 14.6014 5.59006 14.5962 5.55383C14.5911 5.54348 14.5911 5.52795 14.5911 5.51242C14.4306 2.00311 12.0548 1.43375 10.6573 1.40269H10.6159H10.5952C9.46684 1.40269 6.83226 1.80124 6.66146 5.51242C6.66146 5.51708 6.66041 5.52277 6.65926 5.52905Z" />
<path d="M21.2628 19.8551C21.2628 19.8499 21.2628 19.8447 21.2628 19.8395C21.2628 19.7981 21.2577 19.7567 21.2577 19.7101C21.2266 18.6853 21.1593 16.2888 18.9129 15.5228C18.8974 15.5176 18.8767 15.5124 18.8612 15.5072C16.5268 14.912 14.5858 13.5663 14.5651 13.5507C14.2494 13.3282 13.8146 13.4058 13.592 13.7215C13.3695 14.0373 13.4471 14.472 13.7628 14.6946C13.8508 14.7567 15.9109 16.1905 18.4885 16.853C19.6945 17.2826 19.8291 18.5714 19.8653 19.7516C19.8653 19.7981 19.8653 19.8395 19.8705 19.881C19.8757 20.3468 19.8446 21.0663 19.7618 21.4803C18.9233 21.9565 15.6365 23.6025 10.6365 23.6025C5.65724 23.6025 2.34979 21.9513 1.50611 21.4752C1.42329 21.0611 1.38706 20.3416 1.39741 19.8758C1.39741 19.8344 1.40259 19.793 1.40259 19.7464C1.43882 18.5663 1.57339 17.2774 2.7794 16.8478C5.35704 16.1853 7.41708 14.7464 7.50507 14.6894C7.82081 14.4669 7.89845 14.0321 7.67588 13.7164C7.45331 13.4006 7.01853 13.323 6.70279 13.5455C6.68209 13.5611 4.75145 14.9068 2.40673 15.5021C2.38602 15.5072 2.3705 15.5124 2.35497 15.5176C0.108591 16.2888 0.0413027 18.6853 0.0102468 19.705C0.0102468 19.7516 0.0102468 19.793 0.00507083 19.8344C0.00507083 19.8395 0.00507083 19.8447 0.00507083 19.8499C-0.00010515 20.119 -0.00528115 21.501 0.269046 22.1946C0.320806 22.3292 0.413974 22.4431 0.538197 22.5207C0.693477 22.6242 4.41501 24.9948 10.6417 24.9948C16.8684 24.9948 20.59 22.619 20.7452 22.5207C20.8643 22.4431 20.9626 22.3292 21.0144 22.1946C21.2732 21.5062 21.268 20.1242 21.2628 19.8551Z" />
	<style>
    svg { fill: #fff; }
	svg:hover{ fill:#F4B301;cursor:pointer }
	
  </style>
</svg>
