<svg width="28" height="24" viewBox="0 0 28 24" fill="none" xmlns="http://www.w3.org/2000/svg">
<path fill-rule="evenodd" clip-rule="evenodd" d="M5.85556 2.94722C5.85556 4.55833 4.54444 5.875 2.92778 5.875C1.31667 5.875 0 4.55278 0 2.94167C0 1.33056 1.31111 0.0138893 2.92778 0.0138893C4.54444 0.0138893 5.85556 1.33611 5.85556 2.94722ZM4.49444 2.94167C4.49444 2.08056 3.79444 1.375 2.92778 1.375C2.06667 1.375 1.36111 2.08056 1.36111 2.94167C1.36111 3.80278 2.06667 4.50833 2.92778 4.50833C3.78889 4.50833 4.49444 3.80278 4.49444 2.94167Z" fill="#2B84AA"/>
<path fill-rule="evenodd" clip-rule="evenodd" d="M5.85556 11.9917C5.85556 13.6028 4.54444 14.9194 2.92778 14.9194C1.31667 14.9194 0 13.6083 0 11.9917C0 10.375 1.31111 9.06389 2.92778 9.06389C4.54444 9.06389 5.85556 10.3806 5.85556 11.9917ZM4.49444 11.9917C4.49444 11.1306 3.79444 10.425 2.92778 10.425C2.06667 10.425 1.36111 11.125 1.36111 11.9917C1.36111 12.8583 2.06667 13.5583 2.92778 13.5583C3.78889 13.5583 4.49444 12.8528 4.49444 11.9917Z" fill="#2B84AA"/>
<path fill-rule="evenodd" clip-rule="evenodd" d="M5.85556 21.0417C5.85556 22.6528 4.54444 23.9694 2.92778 23.9694C1.31667 23.9694 0 22.6528 0 21.0417C0 19.4306 1.31667 18.1139 2.92778 18.1139C4.53889 18.1139 5.85556 19.425 5.85556 21.0417ZM4.49444 21.0361C4.49444 20.175 3.79444 19.4694 2.92778 19.4694C2.06667 19.4694 1.36111 20.175 1.36111 21.0361C1.36111 21.8972 2.06667 22.6028 2.92778 22.6028C3.78889 22.6028 4.49444 21.9028 4.49444 21.0361Z" fill="#2B84AA"/>
<path d="M9.7722 3.625H26.5222C26.9 3.625 27.2055 3.31945 27.2055 2.94167C27.2055 2.56389 26.9 2.25834 26.5222 2.25834H9.7722C9.39442 2.25834 9.08887 2.56389 9.08887 2.94167C9.08887 3.31945 9.39442 3.625 9.7722 3.625Z" fill="#2B84AA"/>
<path d="M9.7722 12.675H26.5222C26.9 12.675 27.2055 12.3694 27.2055 11.9917C27.2055 11.6139 26.9 11.3083 26.5222 11.3083H9.7722C9.39442 11.3083 9.08887 11.6139 9.08887 11.9917C9.08887 12.3694 9.39442 12.675 9.7722 12.675Z" fill="#2B84AA"/>
<path d="M9.7722 21.7194H26.5222C26.9 21.7194 27.2055 21.4139 27.2055 21.0361C27.2055 20.6583 26.9 20.3528 26.5222 20.3528H9.7722C9.39442 20.3528 9.08887 20.6583 9.08887 21.0361C9.08887 21.4139 9.39442 21.7194 9.7722 21.7194Z" fill="#2B84AA"/>
</svg>
