<svg width="25" height="25" viewBox="0 0 25 25" fill="none" xmlns="http://www.w3.org/2000/svg">
<path d="M12.4125 14.898C13.782 14.898 14.8985 13.7835 14.8985 12.413C14.8985 11.872 14.7215 11.3725 14.4285 10.9645C13.977 10.3385 13.243 9.92798 12.414 9.92798C11.5845 9.92798 10.851 10.338 10.3985 10.964C10.1045 11.372 9.92897 11.8715 9.92847 12.4125C9.92697 13.783 11.0425 14.898 12.4125 14.898Z" />
<path d="M17.8391 9.37298V7.28998V6.97998L17.5276 6.98098L15.4456 6.98748L15.4536 9.38098L17.8391 9.37298Z" />
<path fill-rule="evenodd" clip-rule="evenodd" d="M0 12.413C0 5.5685 5.5685 0 12.413 0C19.258 0 24.826 5.5685 24.826 12.413C24.826 19.257 19.257 24.826 12.413 24.826C5.5685 24.826 0 19.257 0 12.413ZM19.4725 16.7445V10.9645V8.0825C19.4725 6.5775 18.2485 5.354 16.7435 5.354H8.082C6.577 5.354 5.3535 6.5775 5.3535 8.0825V10.9645V16.7445C5.3535 18.25 6.577 19.4735 8.082 19.4735H16.744C18.2485 19.4735 19.4725 18.25 19.4725 16.7445Z" />
<path d="M16.2745 12.4131C16.2745 14.5416 14.5425 16.2746 12.413 16.2746C10.2835 16.2746 8.55202 14.5416 8.55202 12.4131C8.55202 11.9011 8.65402 11.4116 8.83602 10.9646H6.72852V16.7446C6.72852 17.4916 7.33502 18.0966 8.08152 18.0966H16.743C17.4885 18.0966 18.096 17.4916 18.096 16.7446V10.9646H15.9875C16.171 11.4116 16.2745 11.9011 16.2745 12.4131Z"/>
<style>
    svg { fill: #fff; }
	svg:hover{ fill:#F4B301;cursor:pointer }
</style>
</svg>
