<svg width="25" height="23" viewBox="0 0 25 23" xmlns="http://www.w3.org/2000/svg">
<path fill-rule="evenodd" clip-rule="evenodd" d="M18.3594 0C20.2323 0 21.9429 0.769548 23.176 2.16693C24.3522 3.49998 25 5.28526 25 7.19391C25 9.27155 24.1878 11.2039 22.4441 13.2752C20.8856 15.1265 18.6436 17.0346 16.0475 19.2441L16.0384 19.2518C15.0736 20.073 14.0761 20.922 13.0144 21.8498L12.9824 21.8778C12.8443 21.9984 12.6722 22.0588 12.5 22.0588C12.3278 22.0588 12.1557 21.9985 12.0176 21.8778L11.9856 21.8498C10.9206 20.9191 9.92029 20.0677 8.95295 19.2444L8.95264 19.2442C6.3564 17.0346 4.11436 15.1264 2.55591 13.2752C0.812158 11.2039 0 9.27155 0 7.19391C0 5.28526 0.647803 3.49998 1.82397 2.16698C3.05708 0.769597 4.76768 0 6.64062 0C9.27481 0 10.9425 1.57128 11.8777 2.88946C12.1204 3.23152 12.3267 3.5745 12.5 3.89724C12.6733 3.5745 12.8797 3.23152 13.1223 2.88946C14.0575 1.57128 15.7252 0 18.3594 0ZM12.5 20.3566C13.405 19.5709 14.2633 18.8404 15.0973 18.1306C20.1785 13.8062 23.5352 10.9493 23.5352 7.19391C23.5352 5.64165 23.0173 4.19989 22.077 3.13428C21.126 2.05657 19.8057 1.46302 18.3594 1.46302C16.3511 1.46302 15.0529 2.69869 14.3176 3.73524C13.658 4.66498 13.3138 5.60219 13.1964 5.96195C13.0982 6.26309 12.8171 6.46689 12.5 6.46689C12.1829 6.46689 11.9018 6.26309 11.8036 5.96195C11.6862 5.60219 11.342 4.66498 10.6824 3.73528C9.94707 2.69869 8.64888 1.46302 6.64062 1.46302C5.19429 1.46302 3.87402 2.05657 2.92295 3.13428C1.98267 4.19989 1.46484 5.64165 1.46484 7.19391C1.46484 10.9493 4.82153 13.8062 9.90254 18.1305C10.7367 18.8404 11.595 19.571 12.5 20.3566Z"/>
<style>
    svg { fill: #fff; }
	svg:hover{ fill:#F4B301;cursor:pointer }
</style>
</svg>
