<svg width="19" height="25" viewBox="0 0 19 25" fill="none" xmlns="http://www.w3.org/2000/svg">
<path fill-rule="evenodd" clip-rule="evenodd" d="M0 8.78906C0 3.94277 3.94277 0 8.78906 0C13.6354 0 17.5781 3.94277 17.5781 8.78906C17.5781 10.3779 17.1495 11.935 16.3384 13.292L9.53945 24.6439C9.40825 24.8631 9.17231 24.998 8.91689 25H8.91108C8.65786 25 8.42241 24.8691 8.28877 24.6538L1.31196 13.4107C0.453564 12.0244 0 10.4265 0 8.78906ZM8.9 22.8606L15.0813 12.5399C15.7563 11.4105 16.1182 10.1133 16.1182 8.78906C16.1182 4.75049 12.8276 1.45508 8.78906 1.45508C4.75049 1.45508 1.45508 4.75049 1.45508 8.78906C1.45508 10.1538 1.84248 11.4851 2.55698 12.639L8.9 22.8606Z" fill="white"/>
<path fill-rule="evenodd" clip-rule="evenodd" d="M4.39453 8.78906C4.39453 6.36592 6.36592 4.39453 8.78906 4.39453C11.2122 4.39453 13.1836 6.36592 13.1836 8.78906C13.1836 11.1703 11.2746 13.1836 8.78906 13.1836C6.33384 13.1836 4.39453 11.1967 4.39453 8.78906ZM5.84961 8.78906C5.84961 10.4085 7.16519 11.7285 8.78906 11.7285C10.4387 11.7285 11.7236 10.3849 11.7236 8.78906C11.7236 7.17363 10.4045 5.84961 8.78906 5.84961C7.17363 5.84961 5.84961 7.17363 5.84961 8.78906Z" fill="white"/>
</svg>
