<svg width="25" height="25" viewBox="0 0 25 25" fill="none" xmlns="http://www.w3.org/2000/svg">
<path fill-rule="evenodd" clip-rule="evenodd" d="M13.8575 23.5093C10.4724 21.8685 7.50659 19.5497 5.04283 16.6046C3.01384 14.1667 1.64738 11.8841 0.741583 9.42547C0.151521 7.83644 -0.076222 6.52174 0.0221217 5.28468C0.104937 4.29607 0.503488 3.44203 1.20742 2.7381L3.14324 0.802277C3.69707 0.274327 4.32854 0 4.98589 0C5.64842 0 6.27471 0.274327 6.80784 0.797101C7.1598 1.12319 7.51695 1.48551 7.85856 1.83747L7.87277 1.8521C8.04375 2.02811 8.21023 2.19949 8.38651 2.37578L9.92895 3.91822C10.4931 4.47723 10.7882 5.12422 10.7882 5.78157C10.7882 6.43892 10.488 7.08592 9.92895 7.64493L9.92891 7.64497C9.76847 7.80541 9.60803 7.96585 9.45276 8.12629C9.0128 8.5766 8.55732 9.03727 8.07078 9.47723C8.41757 10.2795 8.91446 11.0663 9.65463 12.0031C11.1194 13.7992 12.6515 15.1967 14.3389 16.2681C14.5097 16.3768 14.7012 16.4752 14.9082 16.5787C15.0739 16.6615 15.2499 16.7495 15.4207 16.8478L17.2737 14.9948C17.8172 14.4513 18.4538 14.1615 19.1163 14.1615C19.7789 14.1615 20.4103 14.4513 20.9383 15L24.049 18.1108C25.1619 19.2236 25.1619 20.6832 24.0594 21.8323C23.8213 22.0807 23.5728 22.324 23.3296 22.5569C23.305 22.5808 23.2805 22.6045 23.2561 22.6282C22.9257 22.9487 22.6102 23.2547 22.3306 23.5921C22.3254 23.6025 22.3151 23.6128 22.3099 23.618C21.4662 24.5342 20.431 24.9793 19.1422 24.9793C19.0279 24.9793 18.9183 24.9745 18.8044 24.9696L18.7902 24.9689C16.8699 24.8447 15.1463 24.1201 13.8575 23.5093ZM2.10804 3.63354C1.61115 4.13043 1.34717 4.70497 1.28506 5.39337C1.20225 6.43375 1.40411 7.57764 1.93724 9.00104C2.79645 11.3199 4.09562 13.4834 6.02626 15.8075C8.37098 18.6128 11.1971 20.823 14.4165 22.381C15.6018 22.9451 17.1805 23.6077 18.8782 23.7164C18.9662 23.7215 19.0594 23.7267 19.1474 23.7267C20.0635 23.7267 20.7726 23.4265 21.3679 22.7847C21.6908 22.3981 22.0462 22.0532 22.3902 21.7192C22.41 21.7 22.4299 21.6807 22.4497 21.6615C22.6929 21.4286 22.9207 21.206 23.1381 20.9731C23.7695 20.3157 23.7747 19.6429 23.1536 19.0217L20.0325 15.9058C19.8306 15.6884 19.5097 15.4451 19.1163 15.4451C18.7954 15.4451 18.4693 15.6056 18.1691 15.9058L16.2333 17.8416C16.1453 17.9296 15.8762 18.1936 15.4621 18.1936C15.2964 18.1936 15.1308 18.1522 14.96 18.0642C14.9497 18.059 14.9406 18.0538 14.9315 18.0487C14.9225 18.0435 14.9134 18.0383 14.9031 18.0331C14.7323 17.9244 14.5408 17.8261 14.3337 17.7226C14.2963 17.7034 14.2585 17.6843 14.2204 17.665C14.0316 17.5696 13.8357 17.4705 13.6505 17.3499C11.8492 16.206 10.2136 14.7205 8.66084 12.8054C7.79645 11.7184 7.24262 10.8075 6.84407 9.8499C6.84148 9.84213 6.83889 9.83566 6.8363 9.82919C6.83372 9.82272 6.83113 9.81625 6.82854 9.80849C6.72502 9.49793 6.65773 9.08903 7.08734 8.65942L7.11322 8.63354C7.57261 8.22679 7.99219 7.80233 8.4333 7.3561C8.46931 7.31967 8.50546 7.2831 8.54179 7.24638C8.62202 7.16615 8.70225 7.08463 8.78247 7.00311C8.8627 6.92158 8.94293 6.84006 9.02316 6.75983C9.34407 6.43892 9.5097 6.11284 9.5097 5.79193C9.5097 5.47101 9.34407 5.14493 9.02316 4.82402L7.48071 3.28157C7.39078 3.18907 7.30085 3.09785 7.21156 3.00727C7.12097 2.91538 7.03103 2.82415 6.94241 2.73292C6.8956 2.68542 6.84925 2.63828 6.80324 2.5915C6.50334 2.28656 6.21823 1.99666 5.91757 1.71843C5.62254 1.41822 5.30162 1.26812 4.98589 1.26812C4.66498 1.26812 4.33372 1.41822 4.03351 1.70807L2.10804 3.63354Z" fill="#2B84AA"/>
</svg>
