<svg width="15" height="15" viewBox="0 0 15 15" xmlns="http://www.w3.org/2000/svg">
<path fill-rule="evenodd" clip-rule="evenodd" d="M11.2102 10.3286L14.8163 13.9347C15.0612 14.1765 15.0612 14.5745 14.8163 14.8163C14.5714 15.0612 14.1765 15.0612 13.9316 14.8163L10.3255 11.2133C9.23571 12.1071 7.84286 12.6429 6.32143 12.6429C2.82857 12.6429 0 9.81122 0 6.32143C0 2.83163 2.82857 0 6.32143 0C9.81122 0 12.6429 2.83163 12.6429 6.32143C12.6429 7.84286 12.1041 9.23878 11.2102 10.3286ZM1.2551 6.32143C1.2551 9.11327 3.52653 11.3847 6.32143 11.3847C9.11327 11.3847 11.3878 9.11327 11.3878 6.32143C11.3878 3.52959 9.11327 1.2551 6.32143 1.2551C3.52653 1.2551 1.2551 3.52959 1.2551 6.32143Z" />
<style>
    svg { fill: #black; }
	svg:hover{ fill:#F4B301;cursor:pointer }
</style>
</svg>
