<svg width="22" height="25" viewBox="0 0 22 25" xmlns="http://www.w3.org/2000/svg">
<path fill-rule="evenodd" clip-rule="evenodd" d="M21.4773 6.16716L15.0866 0.266045C14.9493 0.140672 14.7698 0 14.5832 0H8.00228C5.98474 0 4.59407 1.04851 4.59407 2.56604V4.47761H3.34108C1.49556 4.47761 0.116455 5.64328 0.116455 7.22724V22.153C0.116455 23.8291 1.63772 25 3.34108 25H14.2482C15.9933 25 17.2806 23.7731 17.2806 22.153V20.5224H18.9094C20.5549 20.5224 21.7582 19.2116 21.7582 17.4918V6.92351C21.7582 6.91806 21.7811 6.91271 21.8038 6.9074C21.8262 6.90217 21.8484 6.89698 21.8482 6.89179C21.8484 6.88621 21.8608 6.88073 21.8732 6.87525C21.8857 6.86972 21.8982 6.8642 21.8982 6.85858C21.8985 6.54515 21.7512 6.27761 21.4773 6.16716ZM15.0418 2.48694L19.2023 5.97015H15.0418V2.48694ZM14.2482 23.5075C15.065 23.5075 15.7881 23.0347 15.7881 22.153H15.7885V12.3134H10.0049C9.59295 12.3134 9.07205 12.1213 9.07205 11.7093V5.97015H3.34145C2.76422 5.97015 1.60937 6.25709 1.60937 7.22724V22.153C1.60937 22.9922 2.47466 23.5075 3.34145 23.5075H14.2482ZM14.9359 10.8209H10.5642V7.13507L14.9359 10.8209ZM17.2806 19.0299H18.9094C19.7318 19.0299 20.2657 18.3866 20.2657 17.4914V7.46231H14.4821C14.0702 7.46231 13.5493 7.27015 13.5493 6.85821V1.49216H8.00228C7.21347 1.49216 6.0866 1.7959 6.0866 2.56567V4.47724H9.92243C9.92977 4.47724 9.93398 4.49615 9.93817 4.51499C9.94228 4.53347 9.94637 4.55187 9.95339 4.55224C9.96013 4.55186 9.96377 4.56876 9.96742 4.58569C9.97105 4.60253 9.97468 4.6194 9.98138 4.6194C10.2769 4.6194 10.5068 4.79291 10.6276 5.04179L17.1314 11.034C17.281 11.1709 17.2808 11.3624 17.2806 11.5648C17.2806 11.5714 17.2806 11.578 17.2806 11.5847V19.0299Z"/>
<style>
    svg { fill: #fff; }
	svg:hover{ fill:#F4B301;cursor:pointer }
</style>
</svg>
