<svg width="27" height="25" viewBox="0 0 27 25" xmlns="http://www.w3.org/2000/svg">
<path fill-rule="evenodd" clip-rule="evenodd" d="M8.87573 22.436C8.87573 21.1371 9.93251 20.0803 11.2315 20.0803C12.5304 20.0803 13.5871 21.1371 13.5872 22.436C13.5872 23.735 12.5304 24.7917 11.2315 24.7917C9.93251 24.7917 8.87573 23.735 8.87573 22.436ZM10.1911 22.4359C10.1911 23.0096 10.6578 23.4763 11.2315 23.4763C11.8051 23.4763 12.2719 23.0097 12.2719 22.4359C12.2719 21.8623 11.8051 21.3955 11.2315 21.3955C10.6578 21.3955 10.1911 21.8622 10.1911 22.4359Z"/>
<path fill-rule="evenodd" clip-rule="evenodd" d="M17.1387 22.436C17.1387 21.1371 18.1955 20.0803 19.4944 20.0803C20.7933 20.0803 21.8501 21.1371 21.8501 22.436C21.8501 23.735 20.7934 24.7917 19.4944 24.7917C18.1955 24.7917 17.1387 23.735 17.1387 22.436ZM18.454 22.4359C18.454 23.0096 18.9207 23.4763 19.4944 23.4763C20.068 23.4763 20.5348 23.0097 20.5348 22.4359C20.5348 21.8623 20.0681 21.3955 19.4944 21.3955C18.9208 21.3955 18.454 21.8622 18.454 22.4359Z"/>
<path d="M20.0745 7.67761H10.6499C10.2866 7.67761 9.99219 7.97205 9.99219 8.33527C9.99219 8.6985 10.2867 8.99294 10.6499 8.99294H20.0745C20.4377 8.99294 20.7322 8.6985 20.7322 8.33527C20.7322 7.97199 20.4377 7.67761 20.0745 7.67761Z" />
<path d="M19.5615 11.0928H11.1628C10.7996 11.0928 10.5051 11.3872 10.5051 11.7505C10.5051 12.1137 10.7996 12.4081 11.1628 12.4081H19.5614C19.9246 12.4081 20.2191 12.1137 20.2191 11.7505C20.2191 11.3873 19.9246 11.0928 19.5615 11.0928Z" />
<path fill-rule="evenodd" clip-rule="evenodd" d="M25.4701 4.26301C25.8672 4.26301 26.2389 4.43952 26.4897 4.74735C26.7405 5.05512 26.8385 5.45476 26.7584 5.84358L24.9188 14.7726C24.7935 15.3809 24.2517 15.8225 23.6306 15.8225H7.36599L7.75308 17.7014H23.5088C23.872 17.7014 24.1664 17.9959 24.1664 18.3591C24.1664 18.7223 23.872 19.0168 23.5088 19.0168H7.75302C7.13188 19.0168 6.59009 18.5752 6.46475 17.9669L3.28258 2.52005L0.395898 1.26704C0.0628026 1.12249 -0.0901167 0.735143 0.054589 0.401891C0.199138 0.0687435 0.586432 -0.0841758 0.919684 0.0605822L3.80632 1.31355C4.19874 1.48394 4.48449 1.83571 4.57086 2.25466L4.98457 4.26301H25.4701ZM7.09505 14.5072H23.6306L25.47 5.57833L5.25557 5.57828L7.09505 14.5072Z"/>
<style>
    svg { fill: #fff; }
	svg:hover{ fill:#F4B301;cursor:pointer }
</style>
</svg>
