<svg width="26" height="25" viewBox="0 0 26 25" fill="none" xmlns="http://www.w3.org/2000/svg">
<path fill-rule="evenodd" clip-rule="evenodd" d="M0.709229 12.4681C0.709229 5.58214 6.29163 0 13.1773 0C20.0631 0 25.6455 5.58214 25.6455 12.4681C25.6455 19.3541 20.0631 24.9362 13.1773 24.9362C6.29163 24.9362 0.709229 19.3541 0.709229 12.4681ZM19.9702 14.2647C19.8133 14.1161 19.6564 13.9675 19.5018 13.8166C18.9773 13.3048 18.9439 13.0082 19.3664 12.4189C19.6113 12.0754 19.8663 11.7392 20.1213 11.4028C20.3449 11.1079 20.5686 10.8129 20.7855 10.513C20.8008 10.4918 20.8161 10.4706 20.8314 10.4495C21.2497 9.87111 21.6698 9.2902 21.8898 8.5977C22.0347 8.14082 21.9064 7.93929 21.4381 7.85918C21.3569 7.84515 21.2738 7.84439 21.1919 7.84439L18.4128 7.84107C18.0705 7.83597 17.8817 7.9852 17.7603 8.28852C17.597 8.69872 17.4289 9.10816 17.234 9.50383C16.7924 10.401 16.2993 11.2679 15.6072 12.0023C15.5974 12.0127 15.5875 12.0232 15.5776 12.0339C15.4326 12.1889 15.2699 12.363 15.0312 12.2842C14.7128 12.1681 14.6184 11.6426 14.6238 11.4653L14.6212 8.25816C14.5595 7.8 14.4574 7.59592 14.0026 7.50663L11.1166 7.50714C10.7312 7.50714 10.5383 7.65612 10.3324 7.89694C10.2138 8.03622 10.1781 8.12653 10.422 8.1727C10.9008 8.26352 11.171 8.57372 11.2424 9.05408C11.3572 9.82168 11.3493 10.5921 11.283 11.3628C11.2636 11.5878 11.225 11.8122 11.1358 12.0222C10.9962 12.3526 10.7707 12.4196 10.4748 12.2166C10.2067 12.0327 10.0184 11.773 9.83397 11.5125C9.14188 10.5344 8.58959 9.47985 8.13908 8.37143C8.00872 8.05128 7.78423 7.85714 7.44494 7.85179C6.61127 7.83852 5.7776 7.83648 4.94392 7.85255C4.44214 7.86199 4.29265 8.10536 4.49698 8.5602C5.40489 10.5798 6.41535 12.5431 7.73474 14.3319C8.41229 15.2495 9.18984 16.0599 10.1944 16.6342C11.3332 17.2852 12.5585 17.4811 13.8498 17.4207C14.4541 17.3923 14.6358 17.2349 14.6636 16.6327C14.683 16.2207 14.7294 15.8105 14.9327 15.4403C15.1322 15.0765 15.4347 15.0071 15.783 15.2337C15.9574 15.3467 16.1039 15.4903 16.2429 15.6429C16.3555 15.7659 16.4668 15.8902 16.578 16.0145C16.803 16.266 17.0279 16.5174 17.2643 16.7579C17.7069 17.2089 18.2319 17.475 18.8916 17.4204L21.446 17.4209C21.8572 17.3936 22.071 16.8898 21.8342 16.4304C21.6684 16.1082 21.4506 15.8217 21.2194 15.5446C20.8365 15.0849 20.4034 14.6748 19.9702 14.2647Z" />
<style>
    svg { fill: #fff; }
	svg:hover{ fill:#F4B301;cursor:pointer }
</style>
</svg>
