<svg width="25" height="25" viewBox="0 0 25 25" xmlns="http://www.w3.org/2000/svg">
<path d="M6.55005 13.3882H7.53857V18.7385H8.47377V13.3882H9.48066V12.512H6.55005V13.3882Z" />
<path fill-rule="evenodd" clip-rule="evenodd" d="M13.5889 14.5454C13.86 14.2112 14.1485 14.0423 14.4577 14.0423C14.7919 14.0423 15.0174 14.2184 15.1294 14.5663C15.1858 14.7528 15.2146 15.0594 15.2146 15.4987V17.3462C15.2146 17.7755 15.1858 18.0844 15.1294 18.2811C15.0172 18.6265 14.7922 18.8025 14.4577 18.8025C14.1585 18.8025 13.8702 18.6362 13.5889 18.289V18.7385H12.7483V12.5117H13.5889V14.5454ZM14.0077 18.038C14.2506 18.038 14.3735 17.8314 14.3735 17.412V15.4319C14.3735 15.0135 14.2503 14.7987 14.0077 14.7987C13.8697 14.7987 13.7292 14.8645 13.5886 15.0036V17.8311C13.7292 17.9719 13.8697 18.038 14.0077 18.038Z"/>
<path d="M11.1796 17.6445C10.9931 17.9081 10.8168 18.0379 10.6479 18.0379C10.5357 18.0379 10.4717 17.9718 10.4513 17.8412C10.4436 17.8142 10.4436 17.7116 10.4436 17.5147V14.0989H9.60278V17.767C9.60278 18.0948 9.6311 18.3162 9.67702 18.457C9.76146 18.6922 9.94819 18.8024 10.2186 18.8024C10.528 18.8024 10.8454 18.6157 11.1796 18.2326V18.7387H12.0209V14.0989H11.1796V17.6445Z"/>
<path d="M11.9012 9.81275C12.1749 9.81275 12.3063 9.59566 12.3063 9.16199V7.18979C12.3063 6.75587 12.1749 6.53979 11.9012 6.53979C11.6272 6.53979 11.4956 6.75612 11.4956 7.18979V9.16199C11.4956 9.59592 11.6272 9.81275 11.9012 9.81275Z" />
<path fill-rule="evenodd" clip-rule="evenodd" d="M12.4681 0C5.58214 0 0 5.58214 0 12.4681C0 19.3541 5.58214 24.9362 12.4681 24.9362C19.3541 24.9362 24.9362 19.3541 24.9362 12.4681C24.9362 5.58214 19.3541 0 12.4681 0ZM13.8548 5.83163H14.702V9.28367C14.702 9.48291 14.702 9.58622 14.7122 9.61403C14.7309 9.74566 14.7977 9.81301 14.9115 9.81301C15.0814 9.81301 15.2597 9.68138 15.4482 9.41531V5.83163H16.2977V10.5202H15.4482V10.0089C15.1099 10.3967 14.7875 10.5847 14.4776 10.5847C14.2041 10.5847 14.0153 10.4737 13.9301 10.2365C13.8832 10.0944 13.8548 9.87015 13.8548 9.53929V5.83163ZM10.912 6.25587C10.7314 6.49286 10.6462 6.85918 10.6462 7.36046V9.0023C10.6462 9.50051 10.7314 9.87041 10.912 10.1048C11.1469 10.4247 11.4778 10.5847 11.9013 10.5847C12.3268 10.5847 12.6574 10.4247 12.8923 10.1048C13.0704 9.87041 13.1556 9.50077 13.1556 9.0023V7.36046C13.1556 6.85918 13.0704 6.4926 12.8923 6.25587C12.6574 5.9352 12.3268 5.775 11.9013 5.775C11.4778 5.775 11.1469 5.9352 10.912 6.25587ZM8.37424 4.22857L9.04311 6.69923L9.68571 4.22857H10.6385L9.5051 7.97219V10.5204H8.56327V7.97219C8.47781 7.52066 8.28929 6.85918 7.98699 5.98163C7.88662 5.68632 7.78409 5.39055 7.68159 5.09485C7.58141 4.80586 7.48126 4.51694 7.38316 4.22857H8.37424ZM17.6765 20.5151C18.4048 20.4337 19.0097 19.8878 19.1801 19.1482C19.4227 18.0949 19.4237 16.9446 19.4237 15.8599V15.8396C19.4237 14.7609 19.4237 13.6187 19.1834 12.5717C19.0128 11.8319 18.4077 11.2862 17.6793 11.2048C15.9543 11.0122 14.2084 11.0112 12.4704 11.0122C10.7319 11.0112 8.98597 11.0122 7.26097 11.2048C6.53265 11.286 5.92806 11.8319 5.75791 12.5717C5.51556 13.6253 5.5125 14.7753 5.5125 15.8599C5.5125 16.9446 5.5125 18.0949 5.7551 19.1482C5.925 19.888 6.5301 20.4337 7.25842 20.5151C8.98316 20.7077 10.7293 20.7087 12.4673 20.7077C14.2061 20.7087 15.9513 20.7077 17.6765 20.5151Z"/>
<path fill-rule="evenodd" clip-rule="evenodd" d="M16.1283 14.5177C16.3712 14.2001 16.7051 14.0422 17.1352 14.0422C17.5572 14.0422 17.8916 14.2004 18.1266 14.5172C18.3028 14.7519 18.3868 15.1147 18.3868 15.6103V16.5713H16.7051V17.3943C16.7051 17.8234 16.8465 18.0376 17.1352 18.0376C17.3421 18.0376 17.463 17.9254 17.511 17.7007C17.5184 17.655 17.5294 17.468 17.5294 17.1313H18.3868V17.2535C18.3868 17.5246 18.3768 17.7111 18.3689 17.7953C18.3408 17.9815 18.2745 18.1501 18.1725 18.2991C17.9398 18.6361 17.5952 18.8022 17.1562 18.8022C16.7164 18.8022 16.3814 18.6438 16.1388 18.3269C15.9597 18.0945 15.8687 17.7292 15.8687 17.2361V15.6109C15.8687 15.1152 15.95 14.7524 16.1283 14.5177ZM16.7056 15.8718H17.5465V15.4425C17.5465 15.0137 17.4056 14.7989 17.1276 14.7989C16.8467 14.7989 16.7056 15.0134 16.7056 15.4425V15.8718Z" />
<style>
    svg { fill: #fff; }
	svg:hover{ fill:#F4B301;cursor:pointer }
</style>
</svg>
